# xmcd CD database file
#
# Track frame offsets:
#	150
#	26074
#	49959
#	72939
#	93050
#	107362
#	125134
#	155647
#	178572
#	194972
#	220028
#	238779
#	259865
#	283525
#	304282
#
# Disc length: 4266 seconds
#
# Revision: 0
# Processed by: cddbd v1.5.1PL0 Copyright (c) Steve Scherf et al.
# Submitted via: CDex 1.51
#
DISCID=e010a80f
DTITLE=L'esprit du Blues - L'esprit du Blues
DYEAR=1900
DGENRE=Blues
TTITLE0=JohnnieTaylor - To late to try to do right
TTITLE1=James Peterson - Went too far Stayed too long
TTITLE2=Little Milton - Annie Mae's Cafe
TTITLE3=Earni Johnson - I'm in the mood for the blues
TTITLE4=Mc Kinley Mitchell - Poverty
TTITLE5=Earni Johnson - Don't waiste my time
TTITLE6=Boby Bland - I'm a blues man
TTITLE7=Little Milton - A real good woman
TTITLE8=Artie White - The more you lie to me
TTITLE9=Latimore - Ain't nothin' you can do
TTITLE10=Bobby Rush - Bottle up and Go
TTITLE11=Artie White - When lou live don't take nothin'
TTITLE12=Bobby Rush - Garbage man
TTITLE13=Denise Lasalle - Your husband is cheatin' on us
TTITLE14=Mc Kinley Mitchell - Trouble Blues
EXTD=
EXTT0=
EXTT1=
EXTT2=
EXTT3=
EXTT4=
EXTT5=
EXTT6=
EXTT7=
EXTT8=
EXTT9=
EXTT10=
EXTT11=
EXTT12=
EXTT13=
EXTT14=
PLAYORDER=
